{"title":"The Block - S12E16 - Guest Bedroom Reveals","uid":15855779,"size":1582507617,"categoryP":"video","categoryS":"tv_shows","magnet":"?xt=urn:btih:88662cae9fea67fe4fe95cdcc7fd4531198ae1c1&amp;dn=The+Block+-+S12E16+-+Guest+Bedroom+Reveals&amp;tr=udp%3A%2F%2Ftracker.leechers-paradise.org%3A6969&amp;tr=udp%3A%2F%2Fzer0day.ch%3A1337&amp;tr=udp%3A%2F%2Fopen.demonii.com%3A1337&amp;tr=udp%3A%2F%2Ftracker.coppersurfer.tk%3A6969&amp;tr=udp%3A%2F%2Fexodus.desync.com%3A6969","seeders":6,"leechers":3,"uploader":"Bullrout","files":1,"time":1474240868,"description":"The Block - S12E16 - Guest Bedroom Reveals\r\n\r\nIts reveal time for five guest bedrooms, four walk in wardrobes and one ensuite bathroom that impresses all three judges. For one couple, feedback from the judges is devastating and things go from bad to worse when the scores are revealed.\r\n\r\n\r\nComplete name                            : The Block - S12E16 - Guest Bedroom Reveals.mkv\r\nFormat                                   : Matroska\r\nFormat version                           : Version 4 / Version 2\r\nFile size                                : 1.47 GiB\r\nDuration                                 : 1 h 3 min\r\nOverall bit rate mode                    : Variable\r\nOverall bit rate                         : 3 325 kb/s\r\nEncoded date                             : UTC 2016-09-18 20:45:06\r\nWriting application                      : mkvmerge v9.4.2 ('So High') 64bit\r\nWriting library                          : libebml v1.3.4 + libmatroska v1.4.5\r\n\r\nVideo\r\nID                                       : 2\r\nFormat                                   : AVC\r\nFormat/Info                              : Advanced Video Codec\r\nFormat profile                           :   \r\nFormat settings, CABAC                   : Yes\r\nFormat settings, ReFrames                : 3 frames\r\nCodec ID                                 : V_MPEG4/ISO/AVC\r\nDuration                                 : 1 h 3 min\r\nBit rate mode                            : Variable\r\nBit rate                                 : 2 939 kb/s\r\nMaximum bit rate                         : 3 000 kb/s\r\nWidth                                    : 1 280 pixels\r\nHeight                                   : 720 pixels\r\nDisplay aspect ratio                     : 16:9\r\nFrame rate mode                          : Constant\r\nFrame rate                               : 25.000 FPS\r\nStandard                                 : PAL\r\nColor space                              : YUV\r\nChroma subsampling                       : 4:2:0\r\nBit depth                                : 8 bits\r\nScan type                                : Progressive\r\nBits/(Pixel*Frame)                       : 0.128\r\nStream size                              : 1.30 GiB (88%)\r\nWriting library                          : x264 core 112\r\nDefault                                  : Yes\r\nForced                                   : No\r\nColor range                              : Limited\r\nColor primaries                          : BT.709\r\nTransfer characteristics                 : BT.709\r\nMatrix coefficients                      : BT.709\r\n\r\nAudio\r\nID                                       : 1\r\nFormat                                   : AC-3\r\nFormat/Info                              : Audio Coding 3\r\nMode extension                           : CM (complete main)\r\nFormat settings, Endianness              : Big\r\nCodec ID                                 : A_AC3\r\nDuration                                 : 1 h 3 min\r\nBit rate mode                            : Constant\r\nBit rate                                 : 384 kb/s\r\nChannel(s)                               : 6 channels\r\nChannel positions                        : Front: L C R, Side: L R, LFE\r\nSampling rate                            : 48.0 kHz\r\nFrame rate                               : 31.250 FPS (1536 spf)\r\nCompression mode                         : Lossy\r\nStream size                              : 174 MiB (12%)\r\nDefault                                  : Yes\r\nForced                                   : No","torrent":{"xt":"urn:btih:88662cae9fea67fe4fe95cdcc7fd4531198ae1c1","amp;dn":"The+Block+-+S12E16+-+Guest+Bedroom+Reveals","amp;tr":["udp%3A%2F%2Ftracker.leechers-paradise.org%3A6969","udp%3A%2F%2Fzer0day.ch%3A1337","udp%3A%2F%2Fopen.demonii.com%3A1337","udp%3A%2F%2Ftracker.coppersurfer.tk%3A6969","udp%3A%2F%2Fexodus.desync.com%3A6969"],"infoHash":"88662cae9fea67fe4fe95cdcc7fd4531198ae1c1","infoHashBuffer":{"type":"Buffer","data":[136,102,44,174,159,234,103,254,79,233,92,220,199,253,69,49,25,138,225,193]},"announce":[],"urlList":[]}}